<svg width="20" height="20" viewBox="0 0 20 20" fill="none" xmlns="http://www.w3.org/2000/svg">
<path d="M10.6246 6.25012V9.64621L13.4465 11.3392C13.5886 11.4245 13.691 11.5629 13.7312 11.7238C13.7713 11.8846 13.7459 12.0549 13.6605 12.197C13.5752 12.3391 13.4368 12.4415 13.276 12.4817C13.1151 12.5218 12.9449 12.4964 12.8027 12.4111L9.67774 10.5361C9.58525 10.4805 9.50872 10.4019 9.4556 10.308C9.40248 10.2141 9.37458 10.108 9.37461 10.0001V6.25012C9.37461 6.08436 9.44046 5.92539 9.55767 5.80818C9.67488 5.69097 9.83385 5.62512 9.99961 5.62512C10.1654 5.62512 10.3243 5.69097 10.4416 5.80818C10.5588 5.92539 10.6246 6.08436 10.6246 6.25012ZM17.4996 4.37512C17.3339 4.37512 17.1749 4.44097 17.0577 4.55818C16.9405 4.67539 16.8746 4.83436 16.8746 5.00012V6.40637C16.3785 5.83137 15.8723 5.27746 15.3027 4.7009C14.2604 3.65848 12.9341 2.94634 11.4893 2.65344C10.0446 2.36055 8.54559 2.4999 7.1796 3.05408C5.81362 3.60826 4.64123 4.55269 3.80894 5.76937C2.97664 6.98605 2.52135 8.42102 2.49994 9.89499C2.47853 11.369 2.89196 12.8165 3.68857 14.0569C4.48518 15.2972 5.62964 16.2753 6.97895 16.8689C8.32826 17.4625 9.82259 17.6454 11.2752 17.3946C12.7278 17.1437 14.0743 16.4704 15.1465 15.4587C15.2062 15.4023 15.2542 15.3346 15.2878 15.2597C15.3214 15.1847 15.3398 15.1038 15.3421 15.0217C15.3445 14.9396 15.3306 14.8578 15.3013 14.781C15.272 14.7043 15.2279 14.634 15.1715 14.5743C15.1151 14.5146 15.0474 14.4666 14.9724 14.433C14.8975 14.3995 14.8166 14.381 14.7345 14.3787C14.6524 14.3764 14.5706 14.3902 14.4938 14.4195C14.4171 14.4488 14.3468 14.4929 14.2871 14.5493C13.3934 15.3916 12.2714 15.9519 11.0611 16.1603C9.85087 16.3686 8.60606 16.2159 7.48212 15.721C6.35819 15.2261 5.40494 14.4111 4.74142 13.3778C4.0779 12.3444 3.73351 11.1385 3.75126 9.91055C3.76901 8.68262 4.14812 7.48714 4.84123 6.47338C5.53434 5.45962 6.51075 4.67252 7.64852 4.21036C8.78629 3.7482 10.035 3.63147 11.2387 3.87475C12.4424 4.11802 13.5478 4.71051 14.4168 5.57824C15.0527 6.22199 15.6098 6.84231 16.1715 7.50012H14.3746C14.2089 7.50012 14.0499 7.56597 13.9327 7.68318C13.8155 7.80039 13.7496 7.95936 13.7496 8.12512C13.7496 8.29088 13.8155 8.44985 13.9327 8.56706C14.0499 8.68427 14.2089 8.75012 14.3746 8.75012H17.4996C17.6654 8.75012 17.8243 8.68427 17.9416 8.56706C18.0588 8.44985 18.1246 8.29088 18.1246 8.12512V5.00012C18.1246 4.83436 18.0588 4.67539 17.9416 4.55818C17.8243 4.44097 17.6654 4.37512 17.4996 4.37512Z" fill="#D4D4D4"/>
</svg>
